ply
format ascii 1.0
element vertex 95
property float32 x
property float32 y
property float32 z
element face 0
property list uint8 int32 vertex_indices
end_header
-1.21734 0.510216 3.42945
1.44133 -0.43813 4.29285
1.20269 -0.166781 4.02021
1.62035 -0.0431057 4.11603
-1.02967 -0.0411953 3.54996
1.2695 0.1616 4.00697
0.534262 0.176778 4.36714
-1.46932 -0.101299 3.47433
0.553231 -0.119191 4.43316
-0.36013 -0.0126009 4.20176
-1.06868 -0.0249511 3.54184
1.52062 0.0454042 4.08486
-1.10303 0.284515 3.47666
-0.797888 0.210553 4.07152
1.18707 0.623038 3.90477
-1.42598 -0.0333803 3.47369
0.795496 0.465569 4.36843
-1.47528 0.0381735 3.44669
-0.7944 -0.148392 4.15155
-0.976251 0.820044 3.91283
1.00082 0.325319 4.4321
-1.02761 0.421091 3.46634
-1.22013 0.595114 3.40834
0.583012 0.0851216 4.39117
-1.07551 0.511357 3.44238
-1.03291 0.502236 3.45259
-1.23886 0.345207 3.45624
-1.41664 -0.0866929 3.47107
-0.724189 0.832216 3.96691
-0.47975 -0.686938 4.70175
1.61549 0.0223962 4.11134
1.55082 -0.268633 4.20177
-1.32295 0.27662 3.43027
-1.13442 -0.143425 3.5535
-1.41442 0.552744 3.36062
-1.03738 0.481828 3.45291
-1.03409 0.614911 3.42416
-1.13058 0.359534 3.46071
0.483186 0.194334 4.3495
0.995693 0.759035 4.34825
1.50798 0.498189 3.99953
-0.847311 0.191929 4.06512
1.23248 0.231182 3.98735
0.484096 0.521347 4.28838
1.21882 -0.0386186 4.03153
-1.41266 -0.423007 3.62752
-1.04193 0.220008 3.49558
-1.47998 -0.258581 3.50491
0.531938 0.121025 4.37819
1.26757 -0.0368953 4.04243
1.27484 0.665275 3.91798
-1.03803 -0.0226483 3.54298
-1.12794 0.52859 3.43021
-0.339572 -0.723666 4.63762
-1.23111 0.552201 3.41882
-0.845642 0.47044 4.01403
0.553707 -0.12027 4.43971
-0.764082 0.376909 4.03682
-1.47643 -0.261956 3.50369
-1.41096 0.487455 3.37466
1.62136 0.339984 4.05126
-1.0392 -0.238769 3.55688
-1.33146 0.0392647 3.47378
1.4322 -0.462627 4.30092
-0.769249 -0.143327 4.155
-1.13545 0.109224 3.50479
-1.47438 0.117913 3.43099
0.53387 0.577883 4.29146
0.521085 -0.0234188 4.40053
-1.21674 0.546439 3.42631
-1.47635 0.00538485 3.45276
-0.540171 0.0329513 4.16202
-1.12539 0.585928 3.42096
-0.848185 0.0995505 4.08499
-1.47517 -0.258124 3.49756
-1.27135 0.407053 3.43832
0.533331 0.750295 4.26028
-1.22066 0.452561 3.4421
0.435484 0.487521 4.28935
0.579703 -0.677617 4.92795
-0.528445 0.421947 4.08791
-1.08421 -0.115957 3.55788
-1.47656 -0.104462 3.47217
-1.12924 0.100838 3.50505
1.42977 0.252217 4.02637
-1.0353 0.439456 3.474
1.47511 0.104138 4.06404
1.47387 0.107157 4.06052
1.18353 -0.0689765 4.02882
0.495573 0.471974 4.30547
-1.33468 -0.0357168 3.49122
1.62142 -0.0425979 4.11289
0.145635 -0.522622 4.70434
-1.44668 -0.323768 3.54876
0.561996 -0.105966 4.43241
