ply
format ascii 1.0
element vertex 72
property float32 x
property float32 y
property float32 z
element face 0
property list uint8 int32 vertex_indices
end_header
0.208588 0.0539818 6.74375
0.394033 -0.359054 16.3823
0.650813 -0.815012 22.2224
-1.41485 1.07681 35.5163
0.228949 0.00439312 7.64199
0.618011 -0.436776 15.9986
0.211942 0.0552266 6.74286
0.205599 0.0568546 6.66197
0.219076 0.0506708 6.7838
-0.588163 0.64502 25.4606
0.212254 0.0554888 6.75326
0.181484 0.0557461 7.11826
0.202816 0.060385 6.6833
0.237135 0.0390918 6.99046
0.209145 0.0541649 6.75371
0.202829 0.0606249 6.68776
-0.148057 -0.218354 15.1025
0.210856 0.0536672 6.6913
0.194919 0.0693212 6.89153
0.220942 0.0490774 6.81328
0.212016 0.0545805 6.73179
0.205702 0.0565669 6.64353
0.694644 -0.897925 23.7831
0.21941 0.0381029 6.95346
0.231616 0.0367815 7.02363
0.210134 0.0550971 6.67095
0.204437 0.0549019 6.64059
0.19682 0.0669972 6.82311
0.205605 0.055965 6.63278
-0.354038 -0.269553 18.0784
0.209108 0.0540821 6.7488
0.211049 0.0544531 6.71109
-0.0641142 0.165425 15.1162
-1.0153 -1.13084 38.6276
-1.37569 1.23309 40.7264
-0.896123 -0.905259 34.7463
0.205601 0.0567976 6.65905
0.176572 0.0576215 7.23993
0.205196 0.0564369 6.65218
0.245051 -0.0011471 7.44377
0.215393 0.0523989 6.736
0.186696 0.0586116 7.01914
0.203154 0.0600584 6.67748
-1.26234 0.899434 31.6483
-0.971302 -1.08851 37.434
0.205269 0.0544613 6.59693
0.20798 0.0543043 6.61638
0.251032 0.0164213 7.31533
0.211482 0.0541619 6.73274
0.205672 0.0601747 6.70958
0.596408 -1.43984 32.2396
-0.996729 -0.989194 37.356
0.601082 -0.415036 15.5145
0.233347 0.040213 6.9256
-1.8229 -1.87863 59.9499
0.592523 -1.42907 32.044
-0.0594823 -1.82454 42.5391
0.229449 0.0411564 6.88343
0.336681 -0.869493 25.5771
-0.464817 0.43016 17.8557
0.204963 0.049226 6.48579
0.207026 0.0551322 6.61455
-0.429556 -0.45581 22.9941
-0.108535 0.213557 15.4366
0.678449 -0.557943 18.3071
0.201783 0.0546234 6.58235
-0.371292 -0.412182 21.4953
0.228085 0.0368442 6.97934
0.233687 -0.00686228 7.49989
0.205088 0.0550031 6.6005
0.192117 0.0398919 7.07038
0.204398 0.0534299 6.60754
