ply
format ascii 1.0
element vertex 179
property float32 x
property float32 y
property float32 z
element face 0
property list uint8 int32 vertex_indices
end_header
-2.57097 0.827568 7.90745
3.27094 0.127235 10.3786
-2.53335 1.42017 7.77718
-1.49439 0.128563 10.1269
-3.59857 -2.16488 10.3491
-3.05283 1.45571 7.57433
-2.90881 1.17302 7.74373
2.11795 1.231 11.2251
-0.95893 -1.48712 11.582
0.268988 -1.98544 12.1271
3.93555 2.03444 10.1965
-1.43171 -1.83201 11.7555
-1.47306 0.54234 10.032
1.99407 1.59239 11.0838
1.81922 -0.153392 11.3663
-3.05017 0.650745 7.74676
1.30753 -1.78122 12.756
3.26829 0.00701462 10.3977
1.41708 0.454613 11.1608
-3.30292 0.643708 7.6688
-1.57925 -0.463566 10.2272
1.32107 1.42414 10.8822
4.16688 -0.759307 11.0389
-2.41741 0.825828 7.9826
-0.423769 -0.323265 10.2441
0.265353 -1.73861 12.117
3.29435 -0.150774 10.4027
2.08362 0.841232 11.3003
1.42371 0.660782 11.1233
1.67366 -1.75828 12.8594
-2.44931 -0.418352 8.28341
-2.51513 0.632075 7.98816
3.33333 1.2966 10.1437
2.12321 1.70075 11.1045
-1.58 0.715936 9.8757
0.204629 0.742756 10.3289
2.03085 0.838069 11.2761
-2.55312 0.901916 7.90598
4.27243 -0.499217 10.8832
0.188736 0.0899573 10.496
-2.60238 0.0977706 8.08648
4.08685 0.151869 10.6633
1.38866 -0.386223 11.4057
-2.6013 0.0930685 8.08812
3.92796 0.613559 10.5196
-2.58457 0.551488 7.98863
1.81296 0.224532 11.3419
-2.31207 0.993375 7.97668
-2.52792 1.19504 7.82663
1.47087 2.38989 10.134
2.43808 -1.92566 12.7736
-1.35602 0.0623485 10.1899
2.48011 0.246156 11.5606
-1.2957 1.20865 9.91022
1.86572 2.32799 10.8737
-2.34032 0.860244 8.00615
-1.47799 0.508952 10.0218
-3.50742 -0.811993 7.96678
-2.38849 -0.413217 8.30307
-2.57563 0.829013 7.92531
-1.46885 0.430493 10.0325
0.856957 0.186914 11.0412
-3.27981 0.788927 7.61104
-2.65484 0.564339 7.91367
-2.4028 -0.747544 8.30814
-3.48353 0.886855 7.6533
0.31078 -0.462998 10.6476
-1.45478 0.917845 9.91972
-2.32507 0.791222 8.02261
-2.58661 0.302257 8.05431
1.65357 -2.07598 12.9646
-3.31445 -1.46334 8.55804
-2.85652 0.785613 7.86831
-3.02505 0.742289 7.76252
-3.34047 -1.47499 8.56137
-2.00725 0.161309 9.86684
3.73973 -1.42286 11.3573
-3.13366 -0.214523 7.97319
-1.35221 0.21747 10.1612
-2.55793 0.453691 8.00806
4.25947 0.00636569 10.7375
-2.01864 -0.209243 9.95027
-3.35221 0.0873812 7.83175
3.30256 0.185113 10.3823
-3.26956 0.806747 7.62127
-2.63023 -0.063086 8.12422
2.11442 1.402 11.1731
2.61214 1.20287 11.3777
-1.37337 -0.167841 10.2344
2.63507 1.34661 11.3662
0.271121 -0.294622 10.5152
2.05291 -0.14322 11.438
-1.92712 0.26226 9.87877
3.88182 0.580126 10.539
4.18795 0.0430651 10.7635
2.05954 0.348666 11.4243
-3.32792 0.517641 7.71774
4.1546 -0.274369 10.8643
4.13767 0.128671 10.7787
1.24994 0.153572 11.1799
3.33333 1.2966 10.1437
1.26466 0.314516 11.1509
3.34263 1.63998 10.0639
-4.22776 2.00838 7.9956
-2.2974 1.01359 7.98685
4.03863 -0.854581 11.1582
4.24569 0.811289 10.6304
-3.35919 -0.216872 7.82746
3.97126 0.310147 10.6827
-2.31688 1.0352 7.99019
-1.26418 0.510522 10.0967
-3.37137 -0.27727 7.84736
0.162822 -1.61437 12.0387
1.41708 0.454613 11.1608
-2.32298 0.800942 8.03368
-3.15326 -0.257687 7.93153
-3.01521 1.33381 7.65027
3.54311 1.77396 10.0963
1.26022 0.234125 11.1635
3.34466 1.51171 10.0946
-1.91406 0.411976 9.85684
-0.220082 -0.617154 10.443
3.91115 1.0347 10.4884
4.17034 0.024881 10.8134
-3.29924 -2.06427 8.96446
1.10982 -0.362548 11.264
-2.34869 0.526109 8.08659
2.04107 0.193645 11.486
-2.75413 1.49719 7.74715
2.0373 -0.161375 11.4855
-3.27289 0.889553 7.63089
-2.65612 -0.0992808 8.1032
-2.56856 0.818398 7.94409
-2.2921 1.05983 7.97371
3.38048 0.417409 2.62204
-2.57591 0.626798 7.95377
-2.57285 0.790025 7.94754
-2.40069 -0.269546 8.2367
-3.41587 -0.467819 7.91867
2.27824 -1.45187 12.8382
-2.6456 1.34922 7.79579
-1.31768 -0.111193 10.2192
-3.46547 -1.30847 8.32195
-0.0191685 -1.12503 10.6209
-2.54184 -1.88347 11.339
4.27534 1.14085 10.5939
0.27463 -0.553043 10.6205
-3.24378 1.13229 7.57609
-1.28026 0.353227 10.1304
3.45294 0.326899 10.4401
-2.51513 0.632074 7.98815
-1.97453 -1.90844 11.5395
3.18279 -0.318183 10.4663
-1.43171 -1.83201 11.7555
-2.32966 0.935462 8.00728
3.24431 -0.246767 10.4999
3.20915 -0.171053 10.4351
-3.13607 1.09811 7.62207
1.47292 -2.18356 13.1356
4.03023 0.283712 10.7052
-3.06874 0.843449 7.74073
-2.28122 1.39433 7.91373
-3.23065 1.29098 7.54519
3.17621 -0.340999 10.4983
1.38992 -0.352579 11.3783
1.58227 -1.66348 12.8927
-3.34501 -1.80572 8.74179
-0.845541 -0.0790004 10.3337
-3.2732 -0.28592 7.90847
3.96576 0.350314 10.6834
1.49496 -1.77413 12.9132
3.32392 1.147 10.1603
3.38707 0.0207318 10.4687
4.16723 0.0211511 10.8217
3.3216 -0.0613431 10.4592
-2.30939 0.959949 8.00783
-2.53626 1.25332 7.86177
-2.40383 -0.0383604 8.17429
-2.29526 1.23908 7.94503
