ply
format ascii 1.0
element vertex 58
property float32 x
property float32 y
property float32 z
element face 0
property list uint8 int32 vertex_indices
end_header
1.1105 0.219628 35.9562
0.890491 -0.510556 28.0068
1.57584 0.175142 38.8475
0.917475 -0.586674 27.2471
0.532905 0.0351022 27.4734
0.923094 -0.506683 29.0967
1.33097 0.2941 36.9097
1.05344 -0.621342 28.5966
1.0371 0.517335 35.2412
1.61255 0.597519 44.5111
1.95082 0.16801 44.7317
0.627517 -0.0395864 26.9641
0.857853 0.319339 30.3503
0.561013 -0.0398836 29.5702
1.48243 0.475071 42.2671
1.68819 -0.441167 36.1444
1.97027 0.0666685 44.9727
1.11786 0.191196 35.3884
0.504934 -0.366878 28.3493
1.70731 -0.0545169 39.6451
0.72925 0.194569 29.0123
1.0801 0.617859 36.2182
1.34377 -0.438712 33.1363
1.14747 -0.402831 33.5326
1.84087 1.08853 49.8584
1.13458 0.8234 39.3674
0.740629 0.219735 29.0916
0.450819 -0.331141 28.5423
2.13883 -0.449066 44.5935
0.654723 -0.126691 27.3964
3.07783 2.74706 82.3995
0.878496 -0.526865 27.5095
0.620849 -0.397063 25.8562
1.04373 0.538089 35.4871
0.571166 -0.0555226 29.0746
1.0273 0.590651 36.272
1.09858 -0.673848 30.3226
0.602907 -0.000200909 29.3497
0.872473 0.343196 30.6801
0.491973 0.0653118 27.9722
1.61125 2.68744 66.2337
9.65223 15.1175 283.37
1.26183 -0.594819 30.8282
0.967001 0.285636 30.9836
0.831971 -0.543724 25.7802
1.06024 -0.627727 28.7143
1.29452 0.451825 35.8889
0.750833 -0.488705 25.2086
0.6191 -0.383712 25.9621
0.804748 -0.508787 26.4406
1.7712 1.81245 54.9029
0.567218 -0.374511 27.265
0.626712 -0.0726694 27.7891
0.837047 0.188748 28.6048
1.01535 -0.605462 28.1384
1.32303 -0.454381 33.451
0.969958 -0.661351 29.8739
0.617457 -0.247654 30.6024
