ply
format ascii 1.0
element vertex 67
property float32 x
property float32 y
property float32 z
element face 0
property list uint8 int32 vertex_indices
end_header
1.36989 0.54388 -1.09429
13.1606 -17.13 365.992
1.63436 0.508578 0.514637
18.0001 -24.9082 406.64
-4.35906 5.16145 133.552
7.32436 -7.50026 172.614
1.45555 0.571002 -1.17063
12.1336 -10.9535 188.383
1.25362 0.616437 -3.66257
1.41669 0.543243 -2.22573
-0.0954511 1.75141 34.3921
1.65534 0.439537 -0.0142584
-3.17185 5.3689 164.124
1.20759 0.734324 -2.45481
0.618875 0.649932 18.7735
1.41717 0.538521 -1.89857
2.30703 0.0476574 6.86384
1.6918 0.400001 0.432178
1.39081 0.547526 -0.76357
-1.52458 -2.85172 89.7292
1.72281 0.390826 0.901121
1.04333 1.41558 13.5155
1.24673 0.608061 -4.19228
2.19757 -0.0339861 8.44067
1.78492 0.0450093 5.96954
1.36276 0.569505 -3.42146
1.21462 0.571357 -4.26846
1.2371 0.591171 -4.55813
1.09412 1.14556 6.51643
-2.5219 -2.73461 98.5572
1.9624 0.15945 2.75082
-1.16236 1.97957 142.768
1.34099 0.552298 -3.99027
1.44938 0.945807 -20.5431
-16.6953 29.142 -570.116
5.03746 6.04977 -160.8
1.25184 0.614357 -3.76144
0.361517 0.765896 30.4068
1.23879 0.60598 -3.95646
11.315 -10.495 179.031
0.819434 0.742748 12.136
1.21553 0.732376 -2.47623
-3.55158 4.05305 105.222
1.21261 0.55707 -5.48964
1.28087 0.552236 -4.96346
3.18256 -0.920581 21.5963
1.29054 0.714498 -1.91913
9.43648 -18.759 294.892
11.803 -10.5904 180.994
1.41325 0.649994 -1.80647
-16.5661 -55.3392 1603.85
1.09569 0.996174 -17.7632
-5.27835 -8.09354 245.567
56.4213 -150.12 2817.95
1.1646 0.458532 -7.85058
1.25803 0.569485 -5.06395
-4.22055 -6.79118 208.242
0.283001 2.69226 -50.8153
-1.41513 2.51234 127.431
1.22466 0.894699 0.561409
0.443577 2.4281 -45.075
11.1724 -10.6485 182.726
2.04514 -0.00663292 6.67322
-26.2169 40.9975 -677.67
0.995453 0.514315 0.167373
1.02335 0.0640707 12.3584
0.438044 0.248871 16.728
