ply
format ascii 1.0
element vertex 87
property float32 x
property float32 y
property float32 z
element face 0
property list uint8 int32 vertex_indices
end_header
0.673968 0.232185 3.32861
1.27769 -0.0766528 4.08309
1.30911 0.203547 4.15155
1.39224 0.179249 4.12923
1.28563 0.123034 4.1418
-2.47591 0.345145 2.36481
-0.0322635 -0.0844129 3.12227
1.29823 0.178155 4.13531
1.38049 0.351968 4.16582
1.19179 -0.255431 4.04921
1.24987 -0.133136 4.06574
-0.114898 0.983782 2.68494
1.3292 -0.511657 3.80955
1.14252 -0.176457 4.08981
0.430158 0.0477357 3.20154
1.31675 0.199246 4.15343
0.434127 0.0230724 3.21589
-0.740467 0.341874 3.17436
-3.88549 -0.816857 2.48543
-0.842483 -0.8859 2.86873
1.37517 0.144799 4.12933
0.206542 0.811361 2.64798
-2.33586 0.670231 2.34098
0.455436 -0.0381406 3.18689
-0.717166 -0.549789 2.94351
-4.98541 1.92615 1.88513
1.50561 0.03604 4.05525
-0.276798 -0.455941 3.02288
1.26559 0.109392 4.14152
1.27177 0.10028 4.13897
-0.226508 0.180254 3.1011
-1.11383 0.42538 3.04998
1.35438 0.292421 4.15715
0.389834 0.773387 2.72865
1.43623 0.275026 4.15147
0.0169733 -0.0325826 3.16006
0.369353 0.374404 3.2493
1.22514 -0.18743 4.06648
0.0272062 0.408625 3.42733
1.13494 -0.259052 4.07776
1.25778 -0.104132 4.07514
-0.262708 0.116027 3.10037
1.16729 -0.107988 4.10772
0.102131 -0.00703743 3.15597
0.0455679 0.0524515 3.15689
-3.02646 0.454651 2.16777
1.28295 0.131259 4.77365
-0.570696 -0.378005 3.0181
0.374451 0.379643 3.24443
-1.17582 1.28426 2.20396
2.9476 0.612993 6.76558
0.302263 -0.273122 3.08557
-0.331266 -0.00275822 3.08874
-5.1242 1.94831 1.82347
-1.10917 1.26477 2.23758
0.353901 0.362304 3.24116
-6.28654 1.62126 2.0549
0.428477 -0.0797029 3.16871
-0.329412 -0.0161928 3.08725
1.13978 -0.190088 4.09625
-0.215876 -0.340829 3.04189
-3.91888 -0.0521936 1.97661
-0.223809 0.837448 2.64809
1.37389 0.307937 4.15582
-1.02356 -0.0673066 3.21069
-4.23798 0.559668 1.7305
0.449599 0.763204 2.74589
-2.40769 0.165625 2.42556
1.3201 0.222248 4.166
-2.91441 0.763385 2.12223
-2.18521 0.851512 2.39371
1.31968 0.221309 4.15894
1.4279 -0.317451 3.88795
-0.42351 -0.752367 2.91164
0.463635 0.417468 3.27532
1.34822 0.0934768 4.11115
-3.26062 0.919354 2.99418
1.32741 0.0588618 4.10273
-3.62414 0.103541 2.003
1.43556 0.292899 4.14578
1.35099 0.109246 4.10615
1.26954 0.106146 4.14343
1.12523 -0.246097 4.09671
1.11464 -0.252318 4.09081
-1.62345 0.782306 2.59433
1.52722 -0.102631 3.97792
1.17363 -0.116552 4.10424
