ply
format ascii 1.0
element vertex 237
property float32 x
property float32 y
property float32 z
element face 0
property list uint8 int32 vertex_indices
end_header
-0.0127274 -0.0205845 -0.497896
-0.0198401 0.0272162 -0.527418
-0.0323257 -0.0172617 -0.493192
-0.0290025 0.0380994 -0.542742
0.0452988 -0.0326516 -0.500167
-0.021072 0.0246496 -0.52516
-0.0430804 0.0350104 -0.567151
-0.0222679 -0.0246499 -0.495509
-0.0237477 -0.0232468 -0.498845
-0.00488284 -0.0384588 -0.497004
0.0367806 -0.0309499 -0.505268
-0.0379672 -0.0112251 -0.494859
0.0339144 -0.0298136 -0.499315
-0.0222507 -0.0247462 -0.494741
-0.0219784 -0.0219062 -0.498392
0.0276916 -0.0130337 -0.501669
0.00678042 -0.0481836 -0.494433
-0.0390594 -0.0077328 -0.494797
-0.0458693 0.00648051 -0.433226
-0.0137856 -0.0206491 -0.497131
0.00656251 -0.0481893 -0.495139
0.0309523 0.0202379 -0.502357
-0.0241374 -0.0231462 -0.501036
0.0188411 -0.0437569 -0.496634
-0.0388499 -0.00729828 -0.490763
-0.023608 -0.0234522 -0.49679
-0.00598131 -0.0405863 -0.498266
-0.029162 0.0380191 -0.544679
-0.028561 0.0119875 -0.522418
-0.0393582 0.0102094 -0.481882
-0.0232791 -0.0305297 -0.499552
-0.000567052 -0.0331501 -0.499798
0.0181122 -0.0459859 -0.495852
-0.00603416 -0.0398913 -0.498864
0.0366738 0.0176721 -0.505254
-0.0441454 0.00670918 -0.435539
-0.0140104 -0.0206484 -0.498139
-0.0225313 -0.0244044 -0.498271
0.0247974 -0.0157142 -0.498486
-0.0244268 -0.0298096 -0.502617
0.0278113 0.024888 -0.509526
-0.0204734 0.0305874 -0.534333
0.0376505 -0.0322776 -0.498439
0.0289339 0.0225092 -0.506988
-0.00497608 -0.0387196 -0.497067
0.0284182 -0.0136626 -0.501342
-0.00347535 -0.0383053 -0.497687
-0.0402834 0.0351561 -0.549804
-0.0337746 -0.0169257 -0.498332
0.0256236 -0.0188498 -0.498835
0.005541 -0.048132 -0.495353
0.0472212 -0.0312802 -0.500759
0.0278755 0.0249188 -0.509166
-0.0219467 -0.0318266 -0.485768
-0.00621961 -0.039852 -0.503764
-0.0205159 -0.0349165 -0.504651
-0.065417 0.0278104 -0.719421
-0.0220041 -0.0220474 -0.497482
-0.00351207 -0.0431554 -0.493396
-0.0174467 0.0406075 -0.530195
0.0288937 0.0224076 -0.507222
-0.0432845 0.0352215 -0.565409
-0.0193694 -0.0357106 -0.493674
-0.0457256 0.00653116 -0.425526
0.02781 0.0243842 -0.509693
0.029603 0.0222019 -0.503418
0.0169796 0.0199569 -0.511379
-0.0173497 0.0406108 -0.529454
0.00168926 0.0364409 -0.520563
0.0170886 0.0200128 -0.510737
-0.0434257 0.00639066 -0.425574
-0.0296406 -0.0267257 -0.652587
-0.0391 0.0108966 -0.488086
0.0295263 0.0200139 -0.501066
-0.00973902 0.0329535 -0.521795
0.0477737 -0.0310519 -0.499084
-0.115485 0.0363717 -1.28387
-0.0150155 -0.0397644 -0.50163
-0.0110594 0.0324249 -0.530851
0.0286225 0.0199145 -0.506414
0.0278555 -0.0194916 -0.500648
-0.117814 0.0380808 -1.30389
0.00864257 -0.0494471 -0.491217
-0.00972411 0.0332162 -0.526145
-0.0299968 0.0377767 -0.553454
-0.0398019 0.03523 -0.560091
0.0185499 -0.0447583 -0.49882
0.00185422 -0.0396261 -0.340757
0.0285275 0.0200365 -0.506922
0.00814751 -0.0304985 -0.640537
-0.036149 -0.0118206 -0.482611
-0.0412521 0.0127168 -0.526449
0.00893898 -0.0495121 -0.489937
-0.028401 0.0374398 -0.534735
-0.0135911 -0.0362763 -0.42296
-0.0212855 0.0309978 -0.537878
0.0268887 -0.0130328 -0.495662
-0.169975 0.078606 -1.77135
-0.00397785 -0.04011 -0.493719
0.0800789 -0.0326437 1.10912
-0.00181919 0.0370169 -0.554325
0.00489606 0.0364636 -0.512364
-0.00468769 -0.0422446 -0.502093
0.0146557 0.00710026 -0.504266
-0.0219621 0.0265272 -0.544723
-0.015859 -0.0395727 -0.505415
0.00378531 0.031049 -0.418859
-0.132049 0.0362656 -1.39058
-0.0400003 0.00489463 -0.376958
0.0356047 0.0185728 -0.488419
0.0347188 0.00862506 -0.46749
0.0166091 0.0200161 -0.51354
-0.0134765 0.0137082 -0.463105
0.0361786 0.0183299 -0.50781
0.0457343 -0.0326741 -0.501014
-0.0011629 -0.0310197 -0.505836
-0.152308 0.0644561 -1.60917
-0.015095 0.0176797 -0.405482
0.0327488 0.000164297 -0.512153
-0.0276452 -0.0244029 -0.653062
-0.101034 0.034684 -1.20805
0.0296471 0.00456297 0.124147
0.0255245 0.00318998 0.290501
19.13 15.6881 755.787
-0.15437 0.247932 -0.623974
-0.710366 -0.480571 -20.7115
-0.153394 0.247329 -0.624655
-0.154088 0.248065 -0.622567
-0.230796 0.172701 -0.635698
-0.211231 0.0468183 -0.834554
0.0317599 -0.271052 -0.0386199
-0.0846016 0.12811 -0.687723
-0.0797183 -0.183561 0.210213
-0.257432 -0.145731 -4.51823
0.0130146 0.194233 -0.631793
-0.252771 -0.142021 -4.31762
-0.0709605 -0.186229 0.200585
-0.250002 -0.139836 -4.19834
-0.0200401 0.195958 -0.623032
-0.0846094 0.126909 -0.703158
-0.0754108 0.284325 -0.627374
0.269753 0.0227615 -0.39286
0.165482 -0.257332 -0.189886
0.205198 -0.281796 -0.225379
-0.0028076 0.182002 -0.628889
-0.246692 -0.134104 -4.01854
-0.0761428 0.286326 -0.625652
-0.0751313 0.28589 -0.626285
-0.0714636 -0.184611 0.178741
0.157368 -0.137036 -0.229209
-0.00205178 0.182602 -0.61936
-0.0419038 -0.27194 0.0251834
-0.0560271 0.28138 -0.626155
-0.0415909 -0.167752 0.161603
0.013257 0.194131 -0.623315
-0.230697 0.171471 -0.653934
-0.143542 -0.130123 0.369028
-0.162278 0.15775 -0.650475
-0.210367 -0.0293217 -1.16704
-0.163053 -0.0985343 0.0634431
-0.046419 -0.263892 0.032771
-0.250181 -0.137192 -4.19352
0.267415 0.0781379 -0.507669
0.0226555 0.21615 -0.635759
0.160415 -0.142342 -0.244869
-0.162978 0.236453 -0.627182
-0.0512022 -0.260696 0.0463779
-0.0854602 -0.208702 0.159991
0.137592 -0.138795 -0.271084
-0.144622 -0.130167 0.351181
-0.217972 0.0226584 -0.914608
0.130716 -0.158667 -0.205713
0.137661 -0.138175 -0.272424
-0.221565 0.166626 -0.662703
0.266311 0.0627397 -0.502071
0.064282 0.216527 -0.627642
-0.209842 -0.0257454 -1.02939
-0.144087 -0.130305 0.337047
-0.147134 -0.129167 0.329822
0.0123657 0.0925256 6.00478
-0.169079 0.234448 -0.64238
-0.0382838 -0.161278 0.168682
0.0136234 0.0956885 6.09289
0.144162 -0.133944 -0.207415
0.253217 0.0342541 -0.430758
-0.0897402 -0.199595 0.0728942
0.155752 -0.238775 -0.26832
-0.282688 -0.237179 -6.30931
0.0790327 0.202641 -0.62807
-0.284383 -0.268374 -6.77968
0.253683 0.0350008 -0.42532
-0.220722 0.167406 -0.655119
0.136934 -0.141422 -0.269413
0.0821993 0.202705 -0.61869
0.264427 0.0271551 -0.42811
0.253493 0.0393468 -0.432553
-0.221928 -0.174143 -3.63441
0.254519 0.0441834 -0.43049
-0.0334049 0.264293 -0.614376
-0.0801013 -0.183949 0.22151
-0.249949 -0.139295 -4.17601
-0.14886 0.16058 -0.656279
-0.210488 0.0495043 -0.79877
-0.169485 0.243379 -0.523749
-0.0725282 -0.182035 0.191681
0.256564 0.0381537 -0.426516
-0.155993 -0.0978395 0.230569
-0.0683205 0.281123 -0.613863
0.208037 -0.279489 -0.160795
0.0228774 0.214727 -0.646438
0.0855263 0.207816 -0.644715
0.0149791 -0.0204169 3.88674
0.288795 0.000382793 -0.378579
-0.0213219 0.0279636 4.21317
0.0879777 0.20786 -0.630367
-0.269236 -0.155251 -5.03958
-0.0880546 -0.195585 0.0175539
0.0787051 0.202573 -0.630435
0.163908 0.11419 0.598002
-0.0196059 0.07802 5.37903
-0.179483 0.267671 9.85873
0.191509 0.0596898 -0.418519
-0.0936918 -0.106121 7.38237
-0.0363882 0.282985 -0.534892
-0.231294 0.162072 -0.67137
-0.00231921 0.05375 3.74096
0.185465 -0.0215735 -0.0824434
-0.150729 0.159963 -0.665041
-0.0125753 0.0172516 4.46052
-0.133423 -0.236077 -1.48211
0.0523445 0.252249 -0.546164
-0.0206312 0.152171 -0.999179
0.146461 0.0215061 -0.898011
-0.0692409 -0.0272099 -2.90765
0.0886441 0.0902744 -1.3625
-0.0671809 0.282355 -0.629237
-0.0675706 0.264819 -0.245126
