ply
format ascii 1.0
element vertex 67
property float32 x
property float32 y
property float32 z
element face 0
property list uint8 int32 vertex_indices
end_header
0.146011 0.0791167 2.17658
0.146159 -0.0340974 2.19487
0.19241 0.065578 2.16674
0.162368 -0.0614568 2.19706
0.00898542 0.125564 2.21619
0.150007 -0.0286362 2.18785
0.169956 0.0860592 2.17124
0.191075 -0.0561649 2.18114
0.13168 0.123979 2.1789
0.172186 0.0819719 2.16467
0.0290144 0.116598 2.18773
0.203522 0.0492544 2.1574
0.035978 0.116056 2.21651
0.106769 0.151721 2.19381
0.0469909 0.0726459 2.20315
0.167893 0.0794162 2.16761
0.230893 0.00132806 2.15779
0.205275 0.040667 2.15683
0.148723 0.079047 2.17725
0.0310541 -0.00629935 2.21771
0.205576 0.0394731 2.15805
0.0763429 0.144502 2.19958
0.134417 0.128316 2.17381
0.205 -0.00240732 2.16599
0.170755 -0.00107032 2.16936
0.172435 0.0990645 2.16051
0.119546 0.111941 2.17517
0.134226 0.126521 2.17241
0.0787615 0.149799 2.20024
0.0174091 0.00120482 2.21332
0.225646 0.000917644 2.14949
0.0549412 0.079543 2.21673
0.174064 0.0966022 2.15376
0.0353918 -0.0168994 2.23869
0.145418 -0.0418567 2.19637
0.0337472 -0.0109494 2.23917
0.131942 0.124551 2.17857
0.0453976 0.0745431 2.2057
0.128134 0.123869 2.17808
0.187632 -0.0572186 2.1722
0.0538043 0.0863981 2.2062
0.109506 0.150863 2.18991
0.00403302 0.122391 2.21364
0.133349 0.12508 2.15877
0.165439 0.109262 2.14962
0.21442 -0.0342855 2.1677
0.130439 0.136609 2.18915
0.137338 -0.0649687 2.22589
0.191856 -0.0568605 2.18022
0.166189 0.113667 2.1763
0.0632695 -0.00948753 2.19256
0.0939403 -0.0504813 2.24227
0.0339719 -0.00477602 2.24534
0.122127 -0.0453418 2.21569
0.171825 -0.0053391 1.56126
0.154506 0.122707 2.15789
0.0357991 -0.00566056 2.22009
0.123254 -0.0441704 2.20282
0.0481108 0.0889801 2.21045
0.103324 0.15664 2.20612
0.121003 -0.0458375 2.21083
0.184883 -0.0561881 2.18694
0.199599 -0.0057043 2.16285
0.162149 -0.0608069 2.17638
0.0500942 0.0724282 2.20677
0.0731961 0.0206879 2.19644
0.0304197 0.0407484 2.17979
