ply
format ascii 1.0
element vertex 176
property float32 x
property float32 y
property float32 z
element face 0
property list uint8 int32 vertex_indices
end_header
-0.683484 -0.1684 4.1094
-0.815807 0.274731 3.35797
-0.707946 -0.0534362 3.47314
-0.820426 -0.0602275 3.41974
-0.719051 0.0541075 3.44654
0.797087 0.191105 4.85426
-0.335948 0.27039 4.22896
-0.715385 -0.0238629 3.46408
-0.719224 -0.273962 3.50556
-0.808296 0.486718 3.32479
-0.816829 0.341402 3.34857
-1.1174 0.60446 3.13471
-0.712492 0.430756 3.38351
-0.610316 0.0566428 4.13408
-0.716809 -0.0502282 3.46699
-0.613522 0.0850085 4.1209
0.338375 0.0582762 4.49684
1.09143 1.09268 4.66802
-0.169535 0.97264 4.18791
-0.813383 -0.00932544 3.40829
0.820573 -0.071529 4.9293
-0.665624 0.131218 4.08986
-0.11155 0.729762 4.26148
1.87298 -0.445838 5.14042
-1.03382 0.055847 3.29165
-0.330363 0.609613 4.16499
-0.703639 0.0771966 3.45046
-0.713967 0.0860489 3.43938
-0.119289 0.0628691 4.38442
0.518221 0.0352548 4.59287
-0.719598 -0.185697 3.49293
-0.821314 -0.195557 3.44465
-0.33401 0.224031 4.23298
-0.808892 0.409832 3.33517
-0.00851042 -0.132298 4.31684
-0.738633 0.519022 3.3494
-0.81009 0.309172 3.35775
-0.115439 0.131533 4.37169
-0.702087 0.354491 3.39968
-0.391153 0.177555 4.21035
-0.329848 0.135605 4.25969
0.965126 0.163822 4.94849
-0.113128 0.59643 4.27946
-0.665052 0.357291 4.04426
-0.113891 0.252436 4.3471
1.88703 -0.442169 5.15037
2.16467 -0.0453482 5.00132
-0.665914 0.173487 4.08178
-0.120947 0.263058 4.34311
-0.708359 0.449711 3.37353
-0.327458 0.507893 4.18652
1.07429 0.554669 4.93033
-0.735881 -0.214653 3.48999
0.391864 0.478188 4.40983
1.23461 0.192324 5.08891
0.744119 0.319293 4.79846
-0.702585 -0.0763756 3.47343
0.986186 -0.0706459 5.01748
0.837476 -0.226712 4.95743
-0.708211 -0.0776752 3.47622
-1.13217 0.417145 3.17134
-0.372785 0.827589 4.10202
-0.474738 -0.323677 4.28907
-0.815262 0.0583402 3.40304
1.61065 0.0655505 4.70515
-0.809943 0.104675 3.39725
1.01813 0.432529 4.92471
-0.816532 -0.221693 3.45179
-0.814755 0.0345329 3.40586
-0.707043 0.0812477 3.44489
-0.714031 0.515947 3.35813
-0.709299 0.522965 3.36249
0.648908 -0.258226 4.86257
-1.13491 0.186153 3.21478
-0.7114 0.360618 3.3878
-1.13127 0.483639 3.15708
0.26491 -0.441659 4.56
1.49316 1.04853 4.69646
-0.785918 0.254616 3.37281
-1.02894 -0.0470147 3.31655
-0.69899 0.532108 3.36561
1.02 0.7494 4.8651
0.165854 -0.219851 4.46602
0.309102 0.608957 4.39606
-0.6975 0.597799 3.35227
-0.334388 0.0538695 4.27013
-0.606751 -0.00886629 4.14044
-2.48199 1.32543 5.90998
0.654373 0.870608 6.68928
-2.84127 -0.170845 6.10646
-2.59599 0.0144897 6.07666
-2.60846 0.98582 5.93902
-2.59675 0.128275 6.05712
-0.17025 -0.167543 6.64949
1.18337 0.832713 6.65341
-1.89565 0.373532 6.02545
-1.78729 -0.615575 6.94715
-2.2317 0.227803 6.03917
-2.82599 0.639327 5.98245
-0.984692 0.647382 6.72743
-1.9111 0.508679 6.00868
2.10042 -0.0846281 5.89498
2.26959 0.10304 5.8788
1.10778 0.790594 6.67273
0.0596827 -0.247241 6.6658
-0.745734 -0.282283 6.89802
-2.94028 -0.0773173 6.08521
1.02974 0.7355 6.68142
-2.82051 -0.00586117 6.08656
2.2685 0.019324 5.89525
-2.11126 -0.0653089 6.0926
0.653177 0.147904 6.73611
-1.96806 0.831284 5.96657
-2.59884 -0.0962006 6.10009
-1.90496 0.099539 6.06449
2.35432 -0.0882404 5.84626
-1.20538 0.697251 6.74229
0.0864149 -0.133857 6.63985
-1.89616 1.05783 5.9365
-0.474793 -1.56836 7.62362
-2.5697 0.0939118 6.07481
-0.788015 -0.924049 7.39453
2.22454 -0.262852 6.00083
-2.80939 -0.186022 6.10847
-2.11963 0.728208 5.97714
-2.84839 0.576825 5.9978
-1.88394 -0.310268 6.12813
-0.78106 -1.28078 7.45001
-1.90331 1.01873 5.94246
1.17906 1.24903 6.61851
-2.8524 1.00743 5.93339
0.749387 -0.14152 6.81009
1.10829 1.05903 6.66234
0.657139 1.04734 6.67362
-0.099796 -0.162579 6.64334
-1.22722 -0.327841 6.90525
0.738192 0.875039 6.67949
0.0323729 -1.16047 7.39271
-1.53672 -1.29728 7.62772
0.00372461 -1.27692 7.42207
-2.85532 0.889102 5.95643
-2.1285 -0.0109427 6.08368
-2.14074 0.943454 5.95225
-1.90183 0.766106 5.95299
0.0454878 -1.28417 7.40577
-1.672 -1.27584 7.60948
-2.54181 0.64906 5.9645
1.02732 0.498292 6.69967
-2.94821 1.2036 5.89071
-2.01969 -1.30174 7.59994
2.278 0.130313 5.87509
2.1979 0.281415 5.8743
-1.91983 0.346807 6.02902
0.572556 -0.146613 6.8093
2.12594 0.424425 5.87946
2.32529 0.0580037 5.87848
-2.17148 0.777142 5.96819
-0.0601984 0.850369 6.59744
-2.11866 0.340104 6.04054
-2.48364 0.561158 6.02999
0.76917 -0.161064 6.80778
1.1041 0.984166 6.66241
-0.803524 -0.956608 7.39464
1.10785 0.39697 6.7231
-2.12794 -0.119879 6.10495
0.989456 -0.116503 6.78418
-1.8881 0.791706 5.9618
0.988979 -0.119647 6.78305
-0.248866 -0.340287 6.72659
0.0657559 -0.273303 6.69819
1.94154 -0.0123494 5.927
2.17311 0.260678 5.87934
0.731929 0.865246 6.69366
-2.85276 0.654074 5.98946
-1.96264 -0.325135 6.13468
-2.81727 1.26493 5.90691
